<svg width="62" height="19" viewBox="0 0 62 19" fill="none" xmlns="http://www.w3.org/2000/svg">
<g clip-path="url(#clip0_2035_331873)">
<path d="M16.1198 0H18.9375V18.9654H16.1198V0ZM28.7994 12.9154C28.7994 15.8179 26.5333 16.0493 25.8591 16.0493C24.1748 16.0493 23.8684 14.3515 23.8684 13.3274V6.06892H21.0507V13.3122C21.0507 15.1101 21.5748 16.5939 22.4934 17.5832C23.3049 18.4579 24.5207 18.9358 25.838 18.9358C26.7721 18.9358 28.095 18.6225 28.7994 17.9299V18.9654H31.6171V6.06892H28.7994V12.9154ZM37.2525 1.51723H34.4348V6.06892H32.3215V9.10338H34.4348V18.9654H37.2525V9.10338H39.3658V6.06892H37.2525V1.51723ZM48.2394 15.1093C47.6259 15.7033 46.8158 16.0326 45.9268 16.0326C43.9671 16.0326 42.5279 14.4827 42.5279 12.3548C42.5279 10.2269 43.9213 8.74228 45.9268 8.74228C46.8003 8.74228 47.6259 9.05559 48.2549 9.64958L48.6825 10.0456L50.5823 8.00035L50.1068 7.53836C48.9889 6.45126 47.5047 5.84134 45.9261 5.84134C42.404 5.84134 39.8462 8.57842 39.8462 12.3389C39.8462 16.0834 42.4652 18.9183 45.9261 18.9183C47.5343 18.9183 49.034 18.3084 50.1378 17.2039L50.5971 16.7419L48.6677 14.6982L48.2394 15.1093ZM60.6394 7.19319C59.8279 6.31926 58.8769 5.84134 57.5597 5.84134C56.6256 5.84134 55.5675 6.15464 54.8631 6.8465V0H52.0454V18.9654H54.8631V11.8609C54.8631 8.95849 56.7777 8.72787 57.4519 8.72787C59.1362 8.72787 59.0897 10.4264 59.0897 11.449V18.9654H61.9074V11.4649C61.9074 9.66703 61.5587 8.18318 60.6394 7.19319Z" fill="white"/>
<path d="M45.8318 10.1938C46.3721 10.1938 46.8903 10.425 47.2723 10.8364C47.6544 11.2479 47.869 11.8059 47.869 12.3878C47.869 12.9696 47.6544 13.5277 47.2723 13.9391C46.8903 14.3505 46.3721 14.5817 45.8318 14.5817C45.2915 14.5817 44.7733 14.3505 44.3913 13.9391C44.0092 13.5277 43.7946 12.9696 43.7946 12.3878C43.7946 11.8059 44.0092 11.2479 44.3913 10.8364C44.7733 10.425 45.2915 10.1938 45.8318 10.1938Z" fill="#FF3D2E"/>
<path d="M12.1729 14.2026C11.1015 15.3897 9.64616 16.033 8.11474 16.033C4.97582 16.033 2.69349 13.3779 2.69349 9.7335C2.69349 6.07242 4.97582 3.41727 8.11474 3.41727C9.63137 3.41727 11.0705 4.05981 12.1581 5.23111L12.5864 5.69311L14.4701 3.66457L14.0566 3.20268C12.4949 1.47066 10.3816 0.531494 8.11474 0.531494C3.49019 0.531494 0.013855 4.48919 0.013855 9.74943C0.013855 14.9937 3.50569 18.9355 8.11474 18.9355C10.3971 18.9355 12.5104 17.9796 14.0721 16.2477L14.4856 15.7857L12.6174 13.7246L12.1729 14.2026Z" fill="white"/>
</g>
<defs>
<clipPath id="clip0_2035_331873">
<rect width="61.922" height="18.9654" fill="white"/>
</clipPath>
</defs>
</svg>
