<svg width="62" height="19" viewBox="0 0 62 19" fill="none" xmlns="http://www.w3.org/2000/svg">
<g clip-path="url(#clip0_2056_387999)">
<path d="M16.1199 0H18.9376V18.9654H16.1199V0ZM28.7995 12.9154C28.7995 15.8179 26.5334 16.0493 25.8593 16.0493C24.175 16.0493 23.8685 14.3515 23.8685 13.3274V6.06892H21.0508V13.3122C21.0508 15.1101 21.5749 16.5939 22.4935 17.5832C23.305 18.4579 24.5208 18.9358 25.8381 18.9358C26.7722 18.9358 28.0951 18.6225 28.7995 17.9299V18.9654H31.6172V6.06892H28.7995V12.9154ZM37.2526 1.51723H34.4349V6.06892H32.3216V9.10338H34.4349V18.9654H37.2526V9.10338H39.3659V6.06892H37.2526V1.51723ZM48.2395 15.1093C47.626 15.7033 46.8159 16.0326 45.9269 16.0326C43.9672 16.0326 42.5281 14.4827 42.5281 12.3548C42.5281 10.2269 43.9214 8.74228 45.9269 8.74228C46.8004 8.74228 47.626 9.05559 48.255 9.64958L48.6826 10.0456L50.5825 8.00035L50.107 7.53836C48.989 6.45126 47.5048 5.84134 45.9262 5.84134C42.4041 5.84134 39.8463 8.57842 39.8463 12.3389C39.8463 16.0834 42.4654 18.9183 45.9262 18.9183C47.5344 18.9183 49.0341 18.3084 50.138 17.2039L50.5972 16.7419L48.6678 14.6982L48.2395 15.1093ZM60.6395 7.19319C59.828 6.31926 58.8771 5.84134 57.5598 5.84134C56.6257 5.84134 55.5677 6.15464 54.8632 6.8465V0H52.0455V18.9654H54.8632V11.8609C54.8632 8.95849 56.7779 8.72787 57.452 8.72787C59.1363 8.72787 59.0898 10.4264 59.0898 11.449V18.9654H61.9075V11.4649C61.9075 9.66703 61.5588 8.18318 60.6395 7.19319Z" fill="#1E1E1E"/>
<path d="M45.8319 10.1938C46.3722 10.1938 46.8903 10.425 47.2724 10.8364C47.6544 11.2479 47.8691 11.8059 47.8691 12.3878C47.8691 12.9696 47.6544 13.5277 47.2724 13.9391C46.8903 14.3505 46.3722 14.5817 45.8319 14.5817C45.2916 14.5817 44.7734 14.3505 44.3914 13.9391C44.0093 13.5277 43.7947 12.9696 43.7947 12.3878C43.7947 11.8059 44.0093 11.2479 44.3914 10.8364C44.7734 10.425 45.2916 10.1938 45.8319 10.1938Z" fill="#FF3D2E"/>
<path d="M12.173 14.2026C11.1016 15.3897 9.64622 16.033 8.1148 16.033C4.97588 16.033 2.69355 13.3779 2.69355 9.7335C2.69355 6.07242 4.97588 3.41727 8.1148 3.41727C9.63143 3.41727 11.0706 4.05981 12.1582 5.23111L12.5865 5.69311L14.4701 3.66457L14.0566 3.20268C12.4949 1.47066 10.3816 0.531494 8.1148 0.531494C3.49025 0.531494 0.013916 4.48919 0.013916 9.74943C0.013916 14.9937 3.50575 18.9355 8.1148 18.9355C10.3971 18.9355 12.5104 17.9796 14.0721 16.2477L14.4856 15.7857L12.6175 13.7246L12.173 14.2026Z" fill="#1E1E1E"/>
</g>
<defs>
<clipPath id="clip0_2056_387999">
<rect width="61.922" height="18.9654" fill="white"/>
</clipPath>
</defs>
</svg>
