<svg width="59" height="20" viewBox="0 0 59 20" fill="none" xmlns="http://www.w3.org/2000/svg">
<g clip-path="url(#clip0_2056_388048)">
<path d="M9.01212 9.65455H11.5184V13.1554C10.7364 13.4052 9.74901 13.5423 8.7226 13.5423C4.56284 13.5423 2.11799 9.99968 2.11799 6.53987C2.11799 3.14653 4.3294 0.7663 7.4146 0.7663C9.36687 0.7663 10.5028 1.42405 11.5191 2.34027V3.48245L13.4247 1.58733C12.2194 0.77635 10.4741 0.00561523 7.97949 0.00561523C2.50316 0.00561523 0 3.90195 0 7.104C0 11.6618 3.33809 14.4075 7.53295 14.4075C9.56693 14.4075 11.3729 14.0987 13.459 13.5214V9.9045C13.459 9.71955 13.5407 9.59265 13.6629 9.48121L14.3211 8.82655H9.85094L9.01212 9.65455Z" fill="url(#paint0_linear_2056_388048)"/>
<path d="M20.2407 4.89648C17.0885 4.89648 15.1355 7.18711 15.1355 9.6185C15.1355 11.7171 16.7089 14.2088 19.8967 14.2088C22.9633 14.2088 24.8447 11.9137 24.8447 9.43976C24.8447 7.13528 23.0061 4.89733 20.2407 4.89733V4.89648ZM19.7177 5.56431C21.94 5.56431 22.9297 8.44375 22.9297 10.4975C22.9297 13.5518 20.6258 13.6122 20.3503 13.6122C19.296 13.6122 18.5591 12.9785 18.0075 12.1473C17.5219 11.3813 17.0473 9.95815 17.0473 8.56757C17.0473 7.18241 17.5032 6.50607 18.2207 6.00849C18.8074 5.63551 19.3567 5.56431 19.7169 5.56431H19.7177Z" fill="url(#paint1_linear_2056_388048)"/>
<path d="M40.8454 4.89478C38.0923 4.89478 36.603 6.62818 36.603 8.56354C36.603 10.0369 37.6644 11.6991 39.854 11.6991H40.4079C40.4079 11.6991 40.257 12.0636 40.2563 12.4157C40.2563 12.935 40.4438 13.2266 40.8421 13.6755C37.0745 13.9038 35.5603 15.4151 35.5603 17.0393C35.5603 18.4617 36.9298 19.8616 39.808 19.8616C43.2153 19.8616 44.9801 17.9803 44.9801 16.134C44.9801 14.8324 44.328 14.119 42.6769 12.8886C42.1913 12.5133 42.0972 12.2742 42.0972 11.9933C42.0972 11.5909 42.3392 11.3246 42.4279 11.2241C42.5843 11.0601 42.8551 10.8728 42.9562 10.783C43.511 10.3156 44.2946 9.62391 44.2946 8.24331C44.2946 7.29614 43.8984 6.4813 42.9959 5.7183H44.0977L44.9256 4.89495H40.8454V4.89478ZM40.0859 5.51074C40.5855 5.51074 41.0025 5.68642 41.4429 6.0509C41.9315 6.48889 42.712 7.66589 42.712 9.12224C42.712 10.6939 41.4842 11.1241 40.8197 11.1241C40.4944 11.1241 40.1047 11.0336 39.7747 10.8092C39.0417 10.3365 38.3141 9.07812 38.3141 7.58075C38.3141 6.22964 39.1233 5.51074 40.0859 5.51074ZM41.1761 14.2721C41.3861 14.2721 41.5371 14.2892 41.5371 14.2892C41.5371 14.2892 42.0328 14.6413 42.379 14.9043C43.1851 15.5381 43.6877 16.0225 43.6877 16.8854C43.6877 18.0717 42.5812 19.0019 40.7892 19.0019C38.8223 19.0019 37.3189 18.0911 37.3189 16.6038C37.3189 15.3718 38.3491 14.3115 41.1761 14.2721Z" fill="url(#paint2_linear_2056_388048)"/>
<path d="M45.5192 13.9376H49.2985L49.8742 13.365L48.7903 13.2304C48.4985 13.1948 48.3251 12.944 48.3251 12.7011V1.34814C48.3251 1.12451 48.4293 1.00997 48.5055 0.937157L49.1872 0.259277H45.9643L45.1255 1.09347H46.3782V12.8534C46.3782 13.0206 46.3253 13.1343 46.2117 13.2512L45.5192 13.9376Z" fill="url(#paint3_linear_2056_388048)"/>
<path d="M54.4218 4.89648C52.3115 4.89648 50.0698 6.496 50.0698 9.3677C50.0698 11.7394 51.6782 14.2088 54.6832 14.2088C55.4326 14.2088 56.0496 14.1129 56.6277 13.8491C57.2479 13.5651 57.8447 13.1039 58.2804 12.5243C57.458 12.9367 56.7872 13.2076 55.8962 13.2076C54.2031 13.2076 52.5706 11.9926 51.9994 9.75934L57.9808 7.35503C57.6353 6.13005 56.6611 4.89648 54.4226 4.89648H54.4218ZM54.0311 5.55347C55.1633 5.55347 55.9818 6.47976 55.9818 7.20484C55.9818 7.43931 55.834 7.56313 55.5414 7.67766L51.8648 9.15645C51.8648 9.15645 51.7653 8.69602 51.7653 8.19845C51.7653 6.11142 53.2826 5.55347 54.0311 5.55347Z" fill="url(#paint4_linear_2056_388048)"/>
<path d="M30.9369 4.89648C27.7848 4.89648 25.8318 7.18711 25.8318 9.6185C25.8318 11.7171 27.4052 14.2088 30.593 14.2088C33.6596 14.2088 35.541 11.9137 35.541 9.43976C35.541 7.13528 33.7023 4.89733 30.9369 4.89733V4.89648ZM30.414 5.56431C32.6364 5.56431 33.626 8.44375 33.626 10.4975C33.626 13.5518 31.322 13.6122 31.0466 13.6122C29.9923 13.6122 29.2554 12.9785 28.7038 12.1473C28.2183 11.3813 27.7436 9.95815 27.7436 8.56757C27.7436 7.18241 28.1995 6.50607 28.917 6.00849C29.5037 5.63551 30.053 5.56431 30.4132 5.56431H30.414Z" fill="url(#paint5_linear_2056_388048)"/>
</g>
<defs>
<linearGradient id="paint0_linear_2056_388048" x1="7.12497" y1="-0.0351524" x2="7.12497" y2="14.4067" gradientUnits="userSpaceOnUse">
<stop stop-color="#196EEF"/>
<stop offset="0.5" stop-color="#186DEE"/>
<stop offset="1" stop-color="#1065E7"/>
</linearGradient>
<linearGradient id="paint1_linear_2056_388048" x1="19.9548" y1="4.87443" x2="19.9548" y2="14.2127" gradientUnits="userSpaceOnUse">
<stop stop-color="#DE5744"/>
<stop offset="0.5" stop-color="#DB4632"/>
<stop offset="1" stop-color="#D13D29"/>
</linearGradient>
<linearGradient id="paint2_linear_2056_388048" x1="40.2356" y1="4.87349" x2="40.2356" y2="19.8673" gradientUnits="userSpaceOnUse">
<stop stop-color="#1A6FEF"/>
<stop offset="0.25" stop-color="#1E72EF"/>
<stop offset="0.5" stop-color="#166BEC"/>
<stop offset="0.75" stop-color="#1267E9"/>
<stop offset="1" stop-color="#1063E5" stop-opacity="0.87"/>
</linearGradient>
<linearGradient id="paint3_linear_2056_388048" x1="47.4654" y1="0.227081" x2="47.4654" y2="13.9507" gradientUnits="userSpaceOnUse">
<stop stop-color="#0AA561"/>
<stop offset="0.5" stop-color="#009B58"/>
<stop offset="1" stop-color="#00914B"/>
</linearGradient>
<linearGradient id="paint4_linear_2056_388048" x1="54.1408" y1="4.87443" x2="54.1408" y2="14.187" gradientUnits="userSpaceOnUse">
<stop stop-color="#DE5644"/>
<stop offset="0.5" stop-color="#DA4531"/>
<stop offset="1" stop-color="#CE3A28"/>
</linearGradient>
<linearGradient id="paint5_linear_2056_388048" x1="30.6514" y1="4.89471" x2="30.6514" y2="14.1942" gradientUnits="userSpaceOnUse">
<stop stop-color="#FFC01A"/>
<stop offset="0.5" stop-color="#FFBA03"/>
<stop offset="1" stop-color="#FFB300"/>
</linearGradient>
<clipPath id="clip0_2056_388048">
<rect width="58.2795" height="19.8685" fill="white"/>
</clipPath>
</defs>
</svg>
