<svg width="111" height="68" viewBox="0 0 111 68" fill="none" xmlns="http://www.w3.org/2000/svg">
<path d="M110.773 10.7517C110.598 10.7501 110.423 10.7485 110.245 10.7485C100.646 10.7485 88.6245 13.4534 82.7942 14.7662C81.2654 15.1102 79.9326 15.4102 79.6045 15.4326C79.6762 15.3406 79.8367 15.1862 79.9931 15.0366C80.2527 14.7878 80.6091 14.4478 81.0211 13.9766C81.5621 13.3582 81.7153 12.8845 81.4751 12.5685C81.1872 12.1893 80.3995 12.2445 79.369 12.7197C79.0191 12.8805 78.2741 13.3974 77.3315 14.0502C75.8761 15.059 73.8838 16.4406 73.1267 16.5974C72.8316 16.6574 72.738 16.5606 72.7082 16.5278C72.5671 16.3798 72.5276 16.031 72.5897 15.5638C72.7969 15.3182 72.9501 15.0926 73.0251 14.9102C73.1823 14.5318 73.1992 14.2894 73.0791 14.1478C73.0106 14.067 72.9041 14.0326 72.8001 14.0558C72.4881 14.1254 72.3268 14.6438 72.2841 14.803C72.2357 14.9822 72.1914 15.1774 72.1583 15.375C71.4528 16.1734 70.1119 17.239 69.0823 17.4446C68.7428 17.5126 68.5139 17.4918 68.4018 17.383C68.1776 17.163 68.2639 16.499 68.4147 15.6766C68.7114 15.1118 68.9017 14.6286 69.0162 14.3398C69.2395 13.7726 69.1791 13.5974 69.0912 13.5006C69.0331 13.4374 68.9049 13.4006 68.8235 13.4262C68.4792 13.5222 68.1938 14.4118 68.0518 15.1574C68.0277 15.2846 68.0043 15.4078 67.9817 15.527C67.402 16.6134 66.4223 17.9862 64.8315 18.7943C64.3082 19.0599 63.6092 19.2967 63.2496 18.9167C63.1464 18.8079 63.077 18.6583 63.0375 18.4822C64.0808 17.2958 64.9654 15.9878 65.079 15.7454C65.2605 15.3598 65.1177 15.0702 64.896 14.9542C64.4751 14.7326 63.7269 15.0518 63.1085 16.0854C62.7134 16.7454 62.4755 17.6278 62.5537 18.3414C61.6313 19.3583 60.6565 20.2127 60.1856 20.0639C59.8518 19.9591 60.0357 18.7455 60.1574 17.9422C60.3211 16.8638 60.4622 15.9326 60.051 15.5766C59.9389 15.4798 59.7357 15.3838 59.4067 15.4806C58.4319 15.7646 56.9459 21.0863 54.5004 33.1161C54.269 33.1857 54.0376 33.2561 53.8062 33.3257C54.9439 26.8304 56.5621 18.0158 57.6071 12.4013C59.0641 8.37245 60.3275 4.20037 60.5727 2.09233C60.7855 0.262699 60.6888 0.0522948 60.4162 0.00829395C60.1953 -0.0269067 60.0066 -0.0597074 59.3052 2.38514C58.927 3.70356 58.5085 5.3908 58.1852 6.89963C58.1134 7.23723 57.7159 9.33727 57.154 12.3533C55.3599 17.2966 53.3152 21.9399 52.6968 22.1231C52.6548 22.1119 52.6153 22.0711 52.5798 22.0031C52.3138 21.4927 52.471 20.0487 52.7484 18.5718C53.0322 17.9686 53.295 17.3742 53.5264 16.8318L55.4083 16.2782C55.4099 16.2782 55.4116 16.2774 55.4132 16.2766C55.5325 16.239 55.5986 16.1118 55.5599 15.9934C55.522 15.875 55.3938 15.8094 55.2745 15.8478L53.7353 16.3366C54.1779 15.2718 54.4601 14.5094 54.4682 14.483C54.6601 13.895 54.3335 13.751 54.2666 13.7278C53.9223 13.6094 53.503 14.0006 53.2547 14.6806C53.1612 14.9366 52.9354 15.7046 52.7 16.6654L49.9957 17.5238C50.3666 16.6678 50.6447 15.947 50.7544 15.5502C51.143 14.1422 50.9624 13.9422 50.7616 13.8654C50.5319 13.7766 50.2746 13.9174 49.7788 14.8846C49.5111 15.407 49.1232 16.587 48.8144 17.899L46.6108 18.5991C46.5447 18.6199 46.5068 18.6903 46.527 18.7567C46.5471 18.8247 46.6189 18.8631 46.6866 18.8431L48.737 18.2398C48.6282 18.7319 48.533 19.2359 48.4613 19.7255C47.5002 21.6311 46.4568 23.3991 46.0488 23.4959C45.8956 23.5319 45.8207 23.4823 45.7715 23.4367C45.4482 23.1343 45.4465 22.0447 45.5175 21.6463C45.5481 21.4743 45.6828 20.6095 45.328 20.5143C45.074 20.4471 44.966 20.7399 44.9192 20.8647C44.7588 21.2951 42.2181 23.5167 41.0982 23.6672C40.9522 23.6863 40.8579 23.6655 40.8144 23.6063C40.7378 23.5015 40.7894 23.2863 40.9539 23.0167C41.661 21.8591 43.9831 20.3159 44.8233 20.4335C44.9474 20.4511 45.0627 20.3655 45.0797 20.2423C45.0974 20.1191 45.0111 20.0055 44.887 19.9879C43.7574 19.8279 41.3207 21.5463 40.5652 22.7839C40.2225 23.3447 40.3112 23.684 40.4459 23.8696C40.5483 24.0112 40.7547 24.1704 41.1595 24.1144C42.227 23.9712 44.3468 22.2775 45.0934 21.3951C45.0877 21.4559 45.0805 21.5143 45.0708 21.5687C45.0248 21.8271 44.9079 23.2487 45.4603 23.7648C45.6473 23.9392 45.8876 23.9976 46.1545 23.9344C46.6487 23.8176 47.4961 22.5223 48.3339 20.9647C48.2952 21.7279 48.3532 22.3759 48.5597 22.7711C48.7411 23.1191 49.0007 23.2239 49.1861 23.2503C49.9924 23.3727 51.1027 21.7855 52.0751 19.9303C51.9574 20.9223 51.9525 21.7815 52.1759 22.2103C52.2718 22.3943 52.4065 22.5111 52.575 22.5575C52.6943 22.5895 52.8193 22.5631 52.9467 22.4767C53.67 21.9919 55.1914 18.7183 56.6895 14.8502C55.6567 20.4319 54.3005 27.856 53.3184 33.4737C47.0527 35.3778 40.87 37.3538 35.0744 39.257C37.9109 29.2153 40.5104 20.0279 41.0764 18.3342C42.6293 13.6862 42.4536 12.7021 42.077 12.3517C41.9504 12.2341 41.7182 12.1261 41.3296 12.2821C40.462 12.6309 38.4535 15.8486 35.488 20.7167C33.548 23.9016 31.134 27.8648 30.622 28.0104C30.1463 27.6368 31.908 22.9679 32.961 20.1783C34.6075 15.8166 35.5936 13.1093 35.1445 12.4533C35.0631 12.3341 34.9381 12.2677 34.793 12.2645C34.7881 12.2645 34.7841 12.2645 34.7801 12.2645C33.2562 12.2645 30.0535 17.3806 24.9682 25.7944C22.634 29.6569 20.2192 33.6505 18.405 36.1418C16.149 39.2402 14.6154 39.9587 14.1389 39.6883C13.6874 39.4323 13.6366 38.053 14.9798 35.0106C17.2447 29.8809 20.865 24.1872 24.0595 19.1647C28.8989 11.5549 32.7208 5.5452 31.317 3.01875C30.8832 2.23794 29.9616 1.84113 28.578 1.84113C19.0266 1.84113 6.51294 13.7502 2.96846 23.4999C1.84126 26.6016 2.14442 29.7545 3.80056 32.1513C5.1124 34.0498 7.08863 35.2106 9.08744 35.2554C9.2237 35.2602 9.31723 35.1602 9.31965 35.0354C9.32207 34.9114 9.22289 34.8082 9.09792 34.805C7.24425 34.7634 5.40428 33.6761 4.17468 31.8969C2.60321 29.6217 2.31858 26.6168 3.3958 23.6536C6.89512 14.0366 19.2016 2.29154 28.5821 2.29154C29.8044 2.29154 30.5704 2.60034 30.9235 3.23556C32.1975 5.5284 28.2507 11.7357 23.6798 18.9231C20.4772 23.9592 16.8472 29.6681 14.5686 34.829C13.289 37.7266 13.0584 39.5915 13.918 40.0787C14.8702 40.6195 16.7343 39.2114 18.7775 36.405C20.6038 33.8977 23.0226 29.8953 25.3617 26.0248C29.136 19.7799 33.4134 12.7037 34.7672 12.7037C34.7688 12.7037 34.7704 12.7037 34.772 12.7037C35.1372 13.1365 33.6359 17.1142 32.5394 20.0183C30.8163 24.584 29.7996 27.4128 30.21 28.1976C30.2938 28.3584 30.4196 28.42 30.5099 28.444C31.1203 28.6008 32.258 26.8944 35.8798 20.9479C38.0318 17.4142 40.7104 13.0165 41.5029 12.6973C41.5941 12.6605 41.715 12.6277 41.7698 12.6789C41.9351 12.8325 42.1569 13.6766 40.6483 18.1902C40.0734 19.9103 37.4271 29.2665 34.5567 39.4259C33.7577 39.6883 32.9659 39.9499 32.183 40.2099C32.2547 39.3155 32.2378 38.7002 32.1144 38.4202C31.9612 38.0746 31.6492 37.8378 31.1848 37.717C26.2777 36.4386 3.02248 48.6828 0.187545 50.7925C0.0117723 50.9229 -0.0406369 51.0573 0.0311234 51.1909C0.211734 51.5293 0.241566 51.5805 12.7746 47.2684C17.8801 45.5124 24.4014 43.2691 31.6742 40.8539C31.1743 45.246 29.0989 54.7557 27.7443 60.9583C26.2285 67.904 26.2285 67.904 26.5333 67.9888C26.5607 67.9968 26.5865 68 26.6099 68C26.7864 68 26.8598 67.7936 26.9493 67.5392C27.6411 65.5776 31.2138 52.9333 34.6672 40.7059C34.7542 40.3963 34.8421 40.0859 34.9292 39.7779C40.7386 37.8682 46.9438 35.8826 53.2346 33.9689C52.6661 37.2306 52.2364 39.8227 52.0896 40.9795C51.838 42.9699 51.9751 43.1395 52.2307 43.1811C52.2436 43.1835 52.2581 43.1859 52.2759 43.1859C52.4734 43.1859 52.9661 42.8635 53.9804 38.0186C54.0505 37.6826 54.1691 37.085 54.3255 36.2962C54.5214 35.3066 54.7109 34.3658 54.8931 33.4665C70.3966 28.792 86.2572 24.6256 97.8695 23.1575C97.9936 23.1415 98.0815 23.0287 98.0662 22.9055C98.0501 22.7815 97.934 22.6951 97.8122 22.7103C86.2306 24.1744 70.4449 28.3136 54.9955 32.9649C57.795 19.2495 59.0092 16.0646 59.535 15.911C59.6083 15.8894 59.7059 15.8734 59.7535 15.9142C59.9776 16.1078 59.8228 17.1286 59.7091 17.8734C59.522 19.1063 59.3455 20.2703 60.0486 20.4911C60.7138 20.7007 61.7377 19.8839 62.6876 18.8671C62.7464 19.0015 62.8222 19.1215 62.919 19.2231C63.2238 19.5455 63.8398 19.8023 65.0387 19.1935C66.2974 18.5543 67.1923 17.5918 67.8196 16.6726C67.7938 17.1302 67.8567 17.479 68.0841 17.7022C68.3123 17.9254 68.6671 17.9862 69.1734 17.8854C70.0902 17.7022 71.2851 16.871 72.1107 16.0734C72.1261 16.379 72.2027 16.6518 72.3801 16.8374C72.5163 16.9806 72.7743 17.131 73.2218 17.0374C74.0692 16.8614 75.9415 15.5638 77.5936 14.4182C78.4813 13.803 79.2481 13.2709 79.5617 13.1269C80.5454 12.6749 81.0397 12.7389 81.1147 12.8381C81.1534 12.8893 81.1517 13.1413 80.6801 13.6798C80.2817 14.1358 79.9334 14.4678 79.6802 14.7102C79.2827 15.0902 79.0836 15.2806 79.1215 15.527C79.1521 15.727 79.3384 15.8198 79.3997 15.8502C79.5738 15.9358 79.9318 15.871 82.8966 15.2038C88.8188 13.871 101.134 11.1093 110.77 11.2005C110.771 11.2005 110.772 11.2005 110.773 11.2005C110.897 11.2005 110.998 11.1013 111 10.9773C110.999 10.8549 110.898 10.7533 110.773 10.7517ZM58.6319 6.99243C59.181 4.42678 59.8349 2.05393 60.2227 0.988313C60.2082 1.23312 60.1784 1.57232 60.1235 2.04033C59.9284 3.71877 59.1471 6.51322 58.153 9.49328C58.4134 8.10685 58.5867 7.20363 58.6319 6.99243ZM53.6829 14.8342C53.8151 14.4726 53.9739 14.2806 54.0723 14.2014C54.0675 14.2374 54.057 14.2854 54.0384 14.3446C53.9191 14.7126 53.6256 15.4694 53.2354 16.3854C53.4111 15.6894 53.5764 15.123 53.6829 14.8342ZM50.1851 15.0878C50.3254 14.8134 50.4351 14.6318 50.5165 14.5118C50.4948 14.6958 50.4407 14.9854 50.3182 15.4302C50.1787 15.9366 49.8481 16.7662 49.4272 17.7038L49.32 17.7382C49.5982 16.6014 49.9304 15.5862 50.1851 15.0878ZM49.2531 18.0878C49.2418 18.1126 49.2313 18.1358 49.22 18.1606C49.2248 18.1374 49.2305 18.1158 49.2361 18.0926L49.2531 18.0878ZM52.3162 18.4214C51.2503 20.6583 49.9771 22.8951 49.2531 22.8039C49.1781 22.7927 49.066 22.7559 48.9652 22.5631C48.7088 22.0727 48.733 21.0375 48.8983 19.8783C49.2297 19.2151 49.5457 18.5415 49.8223 17.9214L52.596 17.1062C52.4984 17.5262 52.4025 17.9726 52.3162 18.4214ZM12.6263 46.8428C7.3539 48.6564 2.96604 50.1661 1.15268 50.6861C5.76066 47.7636 24.6981 38.0698 30.2962 38.0698C30.5922 38.0698 30.8518 38.097 31.0695 38.1538C31.3968 38.2394 31.6032 38.3858 31.6984 38.6026C31.808 38.8522 31.8089 39.4699 31.725 40.3627C24.3716 42.8027 17.7785 45.07 12.6263 46.8428ZM34.2294 40.5851C31.6323 49.7797 28.9683 59.2094 27.5153 64.1455C27.7161 63.2127 27.9467 62.1575 28.1878 61.0535C30.0544 52.5053 31.7427 44.5604 32.1386 40.7003C32.8885 40.4515 33.6456 40.2019 34.41 39.9499C34.3495 40.1611 34.2898 40.3731 34.2294 40.5851ZM53.8804 36.2106C53.7248 36.997 53.6063 37.593 53.5361 37.9282C53.0943 40.0347 52.6863 41.4835 52.4202 42.2211C52.4363 41.9555 52.471 41.5771 52.5395 41.0363C52.6887 39.8563 53.1338 37.1802 53.7199 33.8225C53.9465 33.7537 54.1731 33.6857 54.3997 33.6169C54.2311 34.4498 54.0586 35.3138 53.8804 36.2106ZM63.4995 16.315C63.9672 15.5342 64.4187 15.3382 64.6114 15.3382C64.6428 15.3382 64.6678 15.3438 64.6848 15.3518C64.7267 15.3734 64.7081 15.4702 64.6686 15.555C64.4945 15.9254 63.8091 16.8838 63.0093 17.8238C63.0552 17.3166 63.2383 16.7518 63.4995 16.315Z" fill="black"/>
</svg>
