<svg width="90" height="90" viewBox="0 0 90 90" fill="none" xmlns="http://www.w3.org/2000/svg">
<circle cx="45" cy="45" r="45" fill="#0F3D3A"/>
<path fill-rule="evenodd" clip-rule="evenodd" d="M47.6184 26.1408C53.8936 26.5643 59.2732 29.539 62.6107 33.8525C59.3383 31.1625 55.1372 30.8587 52.416 31.391C48.0864 32.2301 43.2942 34.3132 42.2292 45.0527C41.9499 47.8971 41.4006 52.3339 37.6858 53.0586C34.5269 53.6756 31.2833 51.9142 30.0718 48.5079C26.4565 38.3411 33.5291 25.177 47.6184 26.1408Z" fill="#C8F8A9"/>
<path fill-rule="evenodd" clip-rule="evenodd" d="M43.3662 63.8908C37.2777 63.4799 32.0583 60.5937 28.8201 56.4086C31.9951 59.0186 36.0712 59.3134 38.7114 58.7969C42.912 57.9828 47.5616 55.9617 48.5949 45.5419C48.8659 42.7822 49.3988 38.4775 53.0031 37.7743C56.0679 37.1757 59.215 38.8847 60.3903 42.1896C63.898 52.0537 57.036 64.8259 43.3662 63.8908Z" fill="#C8F8A9"/>
</svg>
