<svg width="16" height="16" viewBox="0 0 16 16" fill="none" xmlns="http://www.w3.org/2000/svg">
<g clip-path="url(#clip0_3832_231855)">
<path fill-rule="evenodd" clip-rule="evenodd" d="M8.19002 0L9.70315 1.37046L11.661 0.792228L12.4297 2.68358L14.4447 3.01206L14.3166 5.04968L15.9894 6.21994L14.99 8L15.9894 9.78006L14.3166 10.9503L14.4447 12.9879L12.4297 13.3164L11.661 15.2078L9.70315 14.6295L8.19002 16L6.6769 14.6295L4.71901 15.2078L3.95035 13.3164L1.93532 12.9879L2.06339 10.9503L0.390625 9.78006L1.39005 8L0.390625 6.21994L2.06339 5.04968L1.93532 3.01206L3.95035 2.68358L4.71901 0.792228L6.6769 1.37046L8.19002 0Z" fill="#56B8FE"/>
<path d="M8.19095 13.1656C11.0438 13.1656 13.3565 10.8529 13.3565 8.00004C13.3565 5.14717 11.0438 2.83447 8.19095 2.83447C5.33809 2.83447 3.02539 5.14717 3.02539 8.00004C3.02539 10.8529 5.33809 13.1656 8.19095 13.1656Z" fill="#FFD454"/>
<path d="M2.80766 10.8077C4.35829 10.8077 5.61532 9.55067 5.61532 8.00004C5.61532 6.44942 4.35829 5.19238 2.80766 5.19238C1.25703 5.19238 0 6.44942 0 8.00004C0 9.55067 1.25703 10.8077 2.80766 10.8077Z" fill="#AEDD90"/>
<path d="M12.5733 10.8077C14.1239 10.8077 15.3809 9.55067 15.3809 8.00005C15.3809 6.44942 14.1239 5.19238 12.5733 5.19238C11.0227 5.19238 9.76562 6.44942 9.76562 8.00005C9.76562 9.55067 11.0227 10.8077 12.5733 10.8077Z" fill="#AEDD90"/>
<path fill-rule="evenodd" clip-rule="evenodd" d="M1.70312 6.80813V7.11943C1.70312 7.28487 1.83739 7.41913 2.00283 7.41913C2.16827 7.41913 2.30254 7.28487 2.30254 7.11943V6.80813C2.30254 6.64269 2.16827 6.50842 2.00283 6.50842C1.83739 6.50842 1.70312 6.64269 1.70312 6.80813Z" fill="#1E1E1E"/>
<path fill-rule="evenodd" clip-rule="evenodd" d="M11.3828 7.29971V7.611C11.3828 7.77644 11.5171 7.91071 11.6825 7.91071C11.848 7.91071 11.9822 7.77644 11.9822 7.611V7.29971C11.9822 7.13427 11.848 7 11.6825 7C11.5171 7 11.3828 7.13427 11.3828 7.29971Z" fill="#1E1E1E"/>
<path fill-rule="evenodd" clip-rule="evenodd" d="M3.3125 6.80813V7.11943C3.3125 7.28487 3.44677 7.41913 3.61221 7.41913C3.77765 7.41913 3.91192 7.28487 3.91192 7.11943V6.80813C3.91192 6.64269 3.77765 6.50842 3.61221 6.50842C3.44677 6.50842 3.3125 6.64269 3.3125 6.80813Z" fill="#1E1E1E"/>
<path fill-rule="evenodd" clip-rule="evenodd" d="M12.9902 7.29971V7.611C12.9902 7.77644 13.1245 7.91071 13.2899 7.91071C13.4552 7.91071 13.5896 7.77644 13.5896 7.611V7.29971C13.5896 7.13427 13.4552 7 13.2899 7C13.1245 7 12.9902 7.13427 12.9902 7.29971Z" fill="#1E1E1E"/>
<path fill-rule="evenodd" clip-rule="evenodd" d="M3.71467 8.26081C3.57821 8.62925 3.22355 8.892 2.80796 8.892C2.39236 8.892 2.03771 8.62925 1.90104 8.26081C1.8435 8.10576 1.67107 8.02664 1.51582 8.08398C1.36077 8.14153 1.28165 8.31416 1.33899 8.46921C1.56017 9.06583 2.13481 9.49141 2.80796 9.49141C3.4809 9.49141 4.05554 9.06583 4.27673 8.46921C4.33427 8.31416 4.25495 8.14153 4.0999 8.08398C3.94485 8.02664 3.77222 8.10576 3.71467 8.26081Z" fill="#1E1E1E"/>
<path fill-rule="evenodd" clip-rule="evenodd" d="M13.3944 8.75239C13.2578 9.12083 12.9031 9.38357 12.4875 9.38357C12.0719 9.38357 11.7173 9.12083 11.5808 8.75239C11.5233 8.59734 11.3506 8.51822 11.1956 8.57556C11.0405 8.63311 10.9612 8.80574 11.0188 8.96079C11.2399 9.5574 11.8146 9.98299 12.4875 9.98299C13.1607 9.98299 13.7353 9.5574 13.9565 8.96079C14.0138 8.80574 13.9347 8.63311 13.7797 8.57556C13.6244 8.51822 13.452 8.59734 13.3944 8.75239Z" fill="#1E1E1E"/>
<path fill-rule="evenodd" clip-rule="evenodd" d="M6.03404 8.35212L6.72066 9.85995C6.75904 9.94437 6.82483 9.9968 6.89611 9.99984C6.96752 10.0031 7.03548 9.95652 7.07761 9.87574C7.83579 8.42095 8.77129 7.32611 9.87762 6.57726C9.98511 6.50438 10.0304 6.32278 9.97847 6.17175C9.92653 6.02073 9.79711 5.95736 9.68948 6.03024C8.61042 6.76067 7.68459 7.80166 6.91832 9.16596L6.39878 8.02496C6.33443 7.88386 6.20054 7.84235 6.09998 7.93265C5.99927 8.02294 5.96969 8.21081 6.03404 8.35212Z" fill="#1E1E1E"/>
</g>
<defs>
<clipPath id="clip0_3832_231855">
<rect width="16" height="16" fill="white"/>
</clipPath>
</defs>
</svg>
