<svg width="16" height="16" viewBox="0 0 16 16" fill="none" xmlns="http://www.w3.org/2000/svg">
<g clip-path="url(#clip0_3832_231893)">
<path fill-rule="evenodd" clip-rule="evenodd" d="M0.508758 6.69063C0.205414 6.38728 0.205414 5.89091 0.508758 5.58753L5.58751 0.508781C5.89088 0.205406 6.38723 0.205406 6.6906 0.508781L15.4912 9.30941C15.7946 9.61275 15.7946 10.1091 15.4912 10.4125L10.4125 15.4912C10.1091 15.7946 9.61276 15.7946 9.30941 15.4912L0.508758 6.69063Z" fill="#72D561"/>
<path fill-rule="evenodd" clip-rule="evenodd" d="M0.508742 6.69064C0.239617 6.42152 0.209304 6.00058 0.417648 5.69714C0.444179 5.73577 0.474523 5.77249 0.508742 5.80674L9.30934 14.6073C9.61271 14.9107 10.1091 14.9107 10.4124 14.6073L15.4912 9.52858C15.5254 9.49433 15.5558 9.45761 15.5823 9.41899C15.7906 9.72239 15.7603 10.1434 15.4912 10.4125L10.4124 15.4912C10.1091 15.7946 9.61271 15.7946 9.30934 15.4912L0.508742 6.69064Z" fill="#3CBE52"/>
<path fill-rule="evenodd" clip-rule="evenodd" d="M4.03104 4.37899L6.35835 6.70627C6.49176 6.83968 6.49176 7.05796 6.35835 7.19136L5.26204 8.28768C5.12863 8.42108 4.91035 8.42105 4.77698 8.28768L2.44966 5.96036C2.31626 5.82696 2.31626 5.60868 2.44966 5.47527L3.54598 4.37896C3.67935 4.24558 3.89763 4.24558 4.03104 4.37899Z" fill="#FFDA2D"/>
<path fill-rule="evenodd" clip-rule="evenodd" d="M6.37812 6.72776C6.49137 6.86217 6.48478 7.06483 6.35834 7.1913L5.26203 8.28761C5.12862 8.42101 4.91034 8.42098 4.77697 8.28761L2.44965 5.96033C2.32322 5.83389 2.31662 5.6312 2.42987 5.49683C2.43612 5.50423 2.44269 5.51142 2.44965 5.51839L4.77697 7.84567C4.91037 7.97908 5.12862 7.97908 5.26203 7.84567L6.35834 6.74936C6.36531 6.74236 6.37187 6.73517 6.37812 6.72776Z" fill="#FFC700"/>
<path fill-rule="evenodd" clip-rule="evenodd" d="M5.63464 7.91627L4.83473 7.11637L4.2208 7.73027L3.86723 7.37671L5.44864 5.7953L5.8022 6.14887L5.18827 6.7628L5.9882 7.56271L5.63464 7.91627ZM3.00827 6.51774L3.36183 6.8713L4.94323 5.2899L4.58967 4.93634L3.97573 5.55027L3.17583 4.75037L2.82227 5.10393L3.62217 5.90383L3.00827 6.51774Z" fill="#FFC700"/>
<path fill-rule="evenodd" clip-rule="evenodd" d="M5.63419 7.91625L5.41322 7.69528L5.76678 7.34172L5.98775 7.56269L5.63419 7.91625ZM4.44134 7.50928L4.22038 7.73025L3.86681 7.37669L4.08778 7.15572L4.44134 7.50928ZM3.00781 6.51772L3.22878 6.29675L3.58234 6.65032L3.36138 6.87128L3.00781 6.51772Z" fill="#FDB800"/>
<path fill-rule="evenodd" clip-rule="evenodd" d="M10.2517 13.5289C10.3493 13.6265 10.3493 13.7848 10.2517 13.8824C10.1541 13.9801 9.99577 13.9801 9.89814 13.8824L6.19627 10.1806C6.09864 10.0829 6.09864 9.92463 6.19627 9.827C6.29389 9.72938 6.45217 9.72938 6.54983 9.827L10.2517 13.5289ZM11.9529 11.8277L10.5273 10.4021C10.4296 10.3044 10.2713 10.3044 10.1737 10.4021C10.0761 10.4997 10.0761 10.658 10.1737 10.7556L11.5993 12.1813C11.697 12.2789 11.8553 12.2789 11.9529 12.1813C12.0505 12.0836 12.0505 11.9253 11.9529 11.8277ZM11.1023 12.6783L8.68914 10.2651C8.59152 10.1675 8.4332 10.1675 8.33558 10.2651C8.23795 10.3628 8.23795 10.5211 8.33558 10.6187L10.7487 13.0318C10.8464 13.1295 11.0047 13.1295 11.1023 13.0318C11.1999 12.9342 11.1999 12.7759 11.1023 12.6783Z" fill="#EFF4F7"/>
<path fill-rule="evenodd" clip-rule="evenodd" d="M4.20898 1.88708L5.05948 1.03659L14.9617 10.9388L14.1112 11.7893L4.20898 1.88708Z" fill="#465759"/>
<path fill-rule="evenodd" clip-rule="evenodd" d="M13.6699 11.348L14.5204 10.4975L14.9623 10.9394L14.1118 11.7899L13.6699 11.348Z" fill="#3A484A"/>
<path fill-rule="evenodd" clip-rule="evenodd" d="M2.49289 15.7188C2.06386 15.7188 1.71289 15.3678 1.71289 14.9388V7.75632C1.71289 7.32729 2.06386 6.97632 2.49289 6.97632H14.9388C15.3678 6.97632 15.7188 7.32729 15.7188 7.75632V14.9388C15.7188 15.3678 15.3678 15.7188 14.9388 15.7188H2.49289Z" fill="#FC685B"/>
<path fill-rule="evenodd" clip-rule="evenodd" d="M2.4935 15.7187C2.11291 15.7187 1.79378 15.4425 1.72656 15.0807C1.77262 15.0892 1.82006 15.0937 1.8685 15.0937H14.3144C14.7434 15.0937 15.0944 14.7428 15.0944 14.3137V7.13129C15.0944 7.08285 15.0899 7.03541 15.0814 6.98938C15.4432 7.0566 15.7194 7.37569 15.7194 7.75629V14.9387C15.7194 15.3678 15.3684 15.7187 14.9394 15.7187H2.4935Z" fill="#F35244"/>
<path fill-rule="evenodd" clip-rule="evenodd" d="M3.34886 11.5933H6.64017C6.82883 11.5933 6.98317 11.7476 6.98317 11.9363V13.4867C6.98317 13.6754 6.82883 13.8297 6.64017 13.8297H3.34886C3.1602 13.8297 3.00586 13.6754 3.00586 13.4867V11.9363C3.00586 11.7476 3.1602 11.5933 3.34886 11.5933Z" fill="#FFDA2D"/>
<path fill-rule="evenodd" clip-rule="evenodd" d="M6.67009 11.5945C6.84519 11.6095 6.98387 11.7574 6.98387 11.9362V13.4867C6.98387 13.6753 6.82953 13.8297 6.64087 13.8297H3.34956C3.17075 13.8297 3.02278 13.691 3.00781 13.5159C3.01744 13.5167 3.02719 13.5172 3.03703 13.5172H6.32834C6.517 13.5172 6.67134 13.3628 6.67134 13.1742V11.6237C6.67134 11.6139 6.67091 11.6041 6.67009 11.5945Z" fill="#FFC700"/>
<path fill-rule="evenodd" clip-rule="evenodd" d="M6.98314 12.9615H5.85189V13.8297H5.35189V11.5933H5.85189V12.4615H6.98314V12.9615ZM4.13711 13.8297V12.9615H3.00586V12.4615H4.13711V11.5933H4.63711V13.8297H4.13711Z" fill="#FFC700"/>
<path fill-rule="evenodd" clip-rule="evenodd" d="M6.98275 12.9614H6.67025V12.4614H6.98275V12.9614ZM5.8515 13.5171V13.8296H5.3515V13.5171H5.8515ZM4.13672 13.8296V13.5171H4.63672V13.8296H4.13672Z" fill="#FDB800"/>
<path fill-rule="evenodd" clip-rule="evenodd" d="M14.2177 13.6644C14.3557 13.6644 14.4677 13.7764 14.4677 13.9144C14.4677 14.0525 14.3557 14.1644 14.2177 14.1644H8.98242C8.84436 14.1644 8.73242 14.0525 8.73242 13.9144C8.73242 13.7764 8.84436 13.6644 8.98242 13.6644H14.2177ZM14.2177 11.2585C14.3557 11.2585 14.4677 11.3705 14.4677 11.5085C14.4677 11.6466 14.3557 11.7585 14.2177 11.7585H12.2015C12.0635 11.7585 11.9515 11.6466 11.9515 11.5085C11.9515 11.3705 12.0635 11.2585 12.2015 11.2585H14.2177ZM14.2177 12.4615C14.3557 12.4615 14.4677 12.5734 14.4677 12.7115C14.4677 12.8495 14.3557 12.9615 14.2177 12.9615H10.8049C10.6669 12.9615 10.5549 12.8495 10.5549 12.7115C10.5549 12.5734 10.6669 12.4615 10.8049 12.4615H14.2177Z" fill="#EFF4F7"/>
<path fill-rule="evenodd" clip-rule="evenodd" d="M1.71289 8.50122H15.7188V9.70416H1.71289V8.50122Z" fill="#465759"/>
<path fill-rule="evenodd" clip-rule="evenodd" d="M15.0938 8.50122H15.7188V9.70416H15.0938V8.50122Z" fill="#3A484A"/>
</g>
<defs>
<clipPath id="clip0_3832_231893">
<rect width="16" height="16" fill="white"/>
</clipPath>
</defs>
</svg>
