<svg width="42" height="42" viewBox="0 0 42 42" fill="none" xmlns="http://www.w3.org/2000/svg">
<path d="M8.76947 42C8.70565 42 8.64126 41.995 8.57678 41.9849C8.11412 41.9115 7.73333 41.5821 7.59421 41.1348L5.99854 36.0015L0.865267 34.4058C0.417951 34.2668 0.0884311 33.8859 0.0151772 33.4233C-0.0580767 32.9606 0.13765 32.4965 0.519997 32.2261L4.909 29.1223L4.84026 23.7471C4.83427 23.2788 5.09472 22.8477 5.51201 22.635C5.92922 22.4223 6.43125 22.4651 6.80646 22.7452L11.1148 25.9602L16.2057 24.2339C16.6492 24.0835 17.1398 24.1979 17.4709 24.5291C17.8021 24.8603 17.9166 25.3508 17.7662 25.7943L16.0398 30.8852L19.2548 35.1936C19.5349 35.5689 19.5777 36.0707 19.365 36.488C19.1523 36.9053 18.7195 37.1644 18.2529 37.1598L12.8778 37.091L9.77394 41.48C9.54114 41.8092 9.16478 42 8.76947 42Z" fill="#FFEF4A"/>
<path d="M31.957 18.235C31.6421 18.235 31.3272 18.1149 31.087 17.8746C30.6064 17.3941 30.6064 16.615 31.087 16.1345L36.8875 10.334C37.368 9.85358 38.1472 9.85342 38.6276 10.334C39.1081 10.8145 39.1081 11.5936 38.6276 12.0742L32.8271 17.8746C32.5867 18.1149 32.2718 18.235 31.957 18.235Z" fill="#FFB454"/>
<path d="M34.8554 8.37422C34.5405 8.37422 34.2256 8.25405 33.9854 8.01378C33.5049 7.53332 33.5049 6.75419 33.9854 6.27365L39.8987 0.360343C40.3792 -0.120114 41.1583 -0.120114 41.6388 0.360343C42.1194 0.8408 42.1194 1.61993 41.6388 2.10047L35.7255 8.01378C35.4853 8.25405 35.1703 8.37422 34.8554 8.37422Z" fill="#FFD845"/>
<path d="M29.3451 19.6149C28.8647 19.1344 28.0855 19.1344 27.605 19.6149L20.0225 27.1973C19.542 27.6778 19.542 28.4569 20.0225 28.9375C20.2628 29.1777 20.5777 29.2979 20.8925 29.2979C21.2074 29.2979 21.5224 29.1777 21.7626 28.9375L29.345 21.355C29.8257 20.8745 29.8257 20.0954 29.3451 19.6149Z" fill="#FFB454"/>
<path d="M16.0051 17.2946L13.0635 20.2361C12.583 20.7165 12.583 21.4956 13.0635 21.9762C13.3038 22.2166 13.6187 22.3367 13.9336 22.3367C14.2484 22.3367 14.5634 22.2165 14.8036 21.9762L17.7451 19.0347C18.2257 18.5543 18.2257 17.7752 17.7451 17.2946C17.2648 16.8141 16.4857 16.8141 16.0051 17.2946Z" fill="#FFD845"/>
<path d="M30.5064 9.75402L21.2256 19.0348C20.7451 19.5152 20.7451 20.2944 21.2256 20.7749C21.4659 21.0152 21.7808 21.1354 22.0957 21.1354C22.4105 21.1354 22.7255 21.0152 22.9657 20.7749L32.2465 11.4941C32.727 11.0137 32.727 10.2346 32.2465 9.75402C31.766 9.27356 30.9869 9.27356 30.5064 9.75402Z" fill="#FFD845"/>
<path d="M21.2255 15.5544L31.6664 5.11353C32.1469 4.63308 32.1469 3.85394 31.6664 3.3734C31.1859 2.89295 30.4068 2.89295 29.9263 3.3734L19.4854 13.8143C19.0049 14.2947 19.0049 15.0738 19.4854 15.5544C19.7257 15.7947 20.0406 15.9148 20.3554 15.9148C20.6703 15.9148 20.9853 15.7947 21.2255 15.5544Z" fill="#FFD845"/>
<path d="M30.7617 30.5156H29.5312V29.2852C29.5312 28.6056 28.9803 28.0547 28.3008 28.0547C27.6212 28.0547 27.0703 28.6056 27.0703 29.2852V30.5156H25.8398C25.1603 30.5156 24.6094 31.0665 24.6094 31.7461C24.6094 32.4256 25.1603 32.9766 25.8398 32.9766H27.0703V34.207C27.0703 34.8866 27.6212 35.4375 28.3008 35.4375C28.9803 35.4375 29.5312 34.8866 29.5312 34.207V32.9766H30.7617C31.4413 32.9766 31.9922 32.4256 31.9922 31.7461C31.9922 31.0665 31.4413 30.5156 30.7617 30.5156Z" fill="#FFB454"/>
<path d="M6.15234 2.46094H4.92188V1.23047C4.92188 0.550922 4.37095 0 3.69141 0C3.01186 0 2.46094 0.550922 2.46094 1.23047V2.46094H1.23047C0.550922 2.46094 0 3.01186 0 3.69141C0 4.37095 0.550922 4.92188 1.23047 4.92188H2.46094V6.15234C2.46094 6.83189 3.01186 7.38281 3.69141 7.38281C4.37095 7.38281 4.92188 6.83189 4.92188 6.15234V4.92188H6.15234C6.83189 4.92188 7.38281 4.37095 7.38281 3.69141C7.38281 3.01186 6.83189 2.46094 6.15234 2.46094Z" fill="#FFD845"/>
<path d="M13.125 11.2383C13.125 11.9178 13.6759 12.4688 14.3555 12.4688C15.035 12.4688 15.5859 11.9178 15.5859 11.2383V10.0078H16.8164C17.496 10.0078 18.0469 9.45689 18.0469 8.77734C18.0469 8.0978 17.496 7.54688 16.8164 7.54688H15.5859V6.31641C15.5859 5.63686 15.035 5.08594 14.3555 5.08594C13.6759 5.08594 13.125 5.63686 13.125 6.31641V7.54688H11.8945C11.215 7.54688 10.6641 8.0978 10.6641 8.77734C10.6641 9.45689 11.215 10.0078 11.8945 10.0078H13.125V11.2383Z" fill="#FFD845"/>
<path d="M22.1484 3.85547C22.828 3.85547 23.3789 3.30457 23.3789 2.625C23.3789 1.94543 22.828 1.39453 22.1484 1.39453C21.4689 1.39453 20.918 1.94543 20.918 2.625C20.918 3.30457 21.4689 3.85547 22.1484 3.85547Z" fill="#FFD845"/>
<path d="M5.74219 16.1602C6.42176 16.1602 6.97266 15.6093 6.97266 14.9297C6.97266 14.2501 6.42176 13.6992 5.74219 13.6992C5.06262 13.6992 4.51172 14.2501 4.51172 14.9297C4.51172 15.6093 5.06262 16.1602 5.74219 16.1602Z" fill="#FFD845"/>
<path d="M34.4531 40.7695C35.1327 40.7695 35.6836 40.2186 35.6836 39.5391C35.6836 38.8595 35.1327 38.3086 34.4531 38.3086C33.7736 38.3086 33.2227 38.8595 33.2227 39.5391C33.2227 40.2186 33.7736 40.7695 34.4531 40.7695Z" fill="#FFB454"/>
<path d="M39.375 24.3633C40.0546 24.3633 40.6055 23.8124 40.6055 23.1328C40.6055 22.4532 40.0546 21.9023 39.375 21.9023C38.6954 21.9023 38.1445 22.4532 38.1445 23.1328C38.1445 23.8124 38.6954 24.3633 39.375 24.3633Z" fill="#FFB454"/>
<path d="M5.99805 36.0015L7.59372 41.1347C7.73276 41.582 8.11363 41.9116 8.57629 41.9848C8.64068 41.995 8.70508 42 8.76898 42C9.16429 42 9.54065 41.8092 9.77345 41.48L12.8773 37.091L18.2524 37.1597C18.719 37.1643 19.1518 36.9052 19.3645 36.488C19.5772 36.0707 19.5344 35.5688 19.2543 35.1935L16.0393 30.8852L17.7657 25.7943C17.9161 25.3508 17.8016 24.8602 17.4704 24.5291L5.99805 36.0015Z" fill="#FFD845"/>
<path d="M33.9863 8.01391C34.2266 8.25418 34.5415 8.37435 34.8564 8.37435C35.1712 8.37435 35.4862 8.25418 35.7264 8.01391L41.6397 2.1006C42.1202 1.62015 42.1202 0.841013 41.6397 0.360474L33.9863 8.01391Z" fill="#FFB454"/>
<path d="M22.0947 21.1354C22.4096 21.1354 22.7246 21.0152 22.9647 20.7749L32.2455 11.4942C32.726 11.0137 32.726 10.2346 32.2455 9.75403L21.2246 20.7749C21.4649 21.0152 21.7798 21.1354 22.0947 21.1354Z" fill="#FFB454"/>
</svg>
