<svg width="20" height="20" viewBox="0 0 20 20" fill="none" xmlns="http://www.w3.org/2000/svg">
<rect width="20" height="20" fill="#0F3D3A"/>
<path fill-rule="evenodd" clip-rule="evenodd" d="M10.7602 2.42932C13.2793 2.59933 15.4389 3.7935 16.7787 5.52508C15.465 4.44521 13.7785 4.32325 12.6861 4.53695C10.9481 4.87376 9.02435 5.71001 8.59683 10.0212C8.48471 11.163 8.26421 12.9441 6.77295 13.235C5.50488 13.4827 4.20277 12.7756 3.71646 11.4082C2.26514 7.32692 5.10433 2.04242 10.7602 2.42932Z" fill="#C8F8A9"/>
<path fill-rule="evenodd" clip-rule="evenodd" d="M9.05401 17.5835C6.60992 17.4185 4.51466 16.2599 3.21475 14.5799C4.48931 15.6276 6.12557 15.7459 7.18543 15.5386C8.87171 15.2118 10.7382 14.4004 11.153 10.2176C11.2618 9.10975 11.4757 7.38171 12.9226 7.09943C14.1529 6.85913 15.4162 7.54517 15.8881 8.87187C17.2962 12.8317 14.5415 17.9588 9.05401 17.5835Z" fill="#C8F8A9"/>
</svg>
