<svg width="171" height="32" viewBox="0 0 171 32" fill="none" xmlns="http://www.w3.org/2000/svg">
<mask id="mask0_2056_387819" style="mask-type:alpha" maskUnits="userSpaceOnUse" x="0" y="0" width="171" height="32">
<rect width="171" height="32" fill="#D9D9D9"/>
</mask>
<g mask="url(#mask0_2056_387819)">
<path d="M158.506 32.0007C156.337 32.0007 154.402 31.5611 152.703 30.682C151.032 29.7736 149.713 28.4842 148.746 26.8139C147.779 25.1436 147.295 23.1655 147.295 20.8798V20.2205C147.295 17.9348 147.779 15.9714 148.746 14.3304C149.713 12.66 151.032 11.3707 152.703 10.4622C154.402 9.55382 156.337 9.09961 158.506 9.09961C160.675 9.09961 162.609 9.55382 164.309 10.4622C166.009 11.3707 167.343 12.66 168.31 14.3304C169.277 15.9714 169.761 17.9348 169.761 20.2205V20.8798C169.761 23.1655 169.277 25.1436 168.31 26.8139C167.343 28.4842 166.009 29.7736 164.309 30.682C162.609 31.5611 160.675 32.0007 158.506 32.0007ZM158.506 27.9568C160.499 27.9568 162.111 27.3267 163.342 26.0666C164.602 24.7773 165.232 23.0044 165.232 20.748V20.3524C165.232 18.0959 164.617 16.3377 163.386 15.0776C162.155 13.7883 160.528 13.1436 158.506 13.1436C156.542 13.1436 154.93 13.7883 153.67 15.0776C152.439 16.3377 151.823 18.0959 151.823 20.3524V20.748C151.823 23.0044 152.439 24.7773 153.67 26.0666C154.93 27.3267 156.542 27.9568 158.506 27.9568Z" fill="white"/>
<path d="M132.121 31.3852V9.71487H136.561V12.2643H137.265C137.617 11.3559 138.174 10.6966 138.936 10.2863C139.727 9.84673 140.694 9.62695 141.837 9.62695H144.431V13.7149H141.661C140.196 13.7149 138.994 14.1251 138.056 14.9456C137.118 15.7368 136.649 16.9676 136.649 18.6379V31.3852H132.121Z" fill="white"/>
<path d="M120.118 31.3859C118.799 31.3859 117.744 30.9903 116.952 30.1991C116.19 29.4079 115.809 28.353 115.809 27.0343V13.5398H109.83V9.71561H115.809V2.55078H120.338V9.71561H126.8V13.5398H120.338V26.2431C120.338 27.1222 120.748 27.5618 121.569 27.5618H126.097V31.3859H120.118Z" fill="white"/>
<path d="M97.1354 31.3845V13.5383H91.0684V9.71414H97.1354V4.96688C97.1354 3.6482 97.5311 2.59326 98.3225 1.80205C99.1138 1.01084 100.169 0.615234 101.488 0.615234H107.071V4.43941H102.939C102.089 4.43941 101.664 4.87897 101.664 5.75809V9.71414H107.907V13.5383H101.664V31.3845H97.1354Z" fill="white"/>
<path d="M77.1465 32.0007C74.9776 32.0007 73.0431 31.5611 71.3432 30.682C69.6725 29.7736 68.3536 28.4842 67.3864 26.8139C66.4192 25.1436 65.9355 23.1655 65.9355 20.8798V20.2205C65.9355 17.9348 66.4192 15.9714 67.3864 14.3304C68.3536 12.66 69.6725 11.3707 71.3432 10.4622C73.0431 9.55382 74.9776 9.09961 77.1465 9.09961C79.3154 9.09961 81.2498 9.55382 82.9498 10.4622C84.6497 11.3707 85.9833 12.66 86.9505 14.3304C87.9177 15.9714 88.4013 17.9348 88.4013 20.2205V20.8798C88.4013 23.1655 87.9177 25.1436 86.9505 26.8139C85.9833 28.4842 84.6497 29.7736 82.9498 30.682C81.2498 31.5611 79.3154 32.0007 77.1465 32.0007ZM77.1465 27.9568C79.1395 27.9568 80.7515 27.3267 81.9825 26.0666C83.2429 24.7773 83.873 23.0044 83.873 20.748V20.3524C83.873 18.0959 83.2575 16.3377 82.0265 15.0776C80.7955 13.7883 79.1688 13.1436 77.1465 13.1436C75.1827 13.1436 73.5707 13.7883 72.3104 15.0776C71.0794 16.3377 70.4639 18.0959 70.4639 20.3524V20.748C70.4639 23.0044 71.0794 24.7773 72.3104 26.0666C73.5707 27.3267 75.1827 27.9568 77.1465 27.9568Z" fill="white"/>
<path d="M50.5315 32C48.2161 32 46.1644 31.5897 44.3765 30.7692C42.5886 29.9487 41.1818 28.7473 40.1559 27.1648C39.1594 25.5531 38.6611 23.6044 38.6611 21.3187V20.2198H43.3653V21.3187C43.3653 23.4872 44.0101 25.1136 45.2998 26.1978C46.6187 27.282 48.3626 27.8242 50.5315 27.8242C52.7297 27.8242 54.3857 27.37 55.4995 26.4615C56.6133 25.5238 57.1701 24.3223 57.1701 22.8571C57.1701 21.8901 56.9063 21.0989 56.3788 20.4835C55.8512 19.8681 55.1038 19.3846 54.1366 19.033C53.1694 18.652 52.0116 18.3004 50.6634 17.978L49.0367 17.5824C47.073 17.1136 45.3584 16.5421 43.8929 15.8681C42.4567 15.1648 41.343 14.2418 40.5516 13.0989C39.7602 11.956 39.3646 10.4908 39.3646 8.7033C39.3646 6.88645 39.8042 5.33333 40.6835 4.04396C41.5921 2.75458 42.8377 1.75824 44.4205 1.05494C46.0032 0.351648 47.8643 0 50.0039 0C52.1435 0 54.0487 0.366301 55.7193 1.0989C57.4193 1.8315 58.7529 2.91575 59.7201 4.35165C60.6873 5.78755 61.1709 7.58974 61.1709 9.75824V11.3407H56.4667V9.75824C56.4667 8.43956 56.1883 7.36997 55.6314 6.54945C55.1038 5.72894 54.3564 5.12821 53.3892 4.74725C52.422 4.3663 51.2936 4.17583 50.0039 4.17583C48.1281 4.17583 46.6626 4.57143 45.6075 5.36264C44.5817 6.12454 44.0688 7.19414 44.0688 8.57143C44.0688 9.50916 44.2886 10.2857 44.7282 10.9011C45.1972 11.4872 45.8713 11.9707 46.7506 12.3516C47.6299 12.7326 48.729 13.0696 50.0479 13.3626L51.6746 13.7582C53.6676 14.1978 55.4262 14.7692 56.9503 15.4725C58.4744 16.1465 59.6761 17.0696 60.5554 18.2418C61.4347 19.4139 61.8743 20.9231 61.8743 22.7692C61.8743 24.6154 61.4054 26.2271 60.4675 27.6044C59.5589 28.9817 58.2546 30.0659 56.5546 30.8571C54.8547 31.619 52.847 32 50.5315 32Z" fill="white"/>
<path fill-rule="evenodd" clip-rule="evenodd" d="M16.8386 0.859422C21.9668 1.19945 26.363 3.58779 29.0904 7.05095C26.4162 4.89122 22.983 4.64729 20.7592 5.07469C17.2211 5.74832 13.3049 7.42081 12.4346 16.0431C12.2063 18.3269 11.7574 21.889 8.72167 22.4709C6.14025 22.9662 3.48952 21.552 2.49952 18.8172C-0.45494 10.6546 5.32484 0.0856375 16.8386 0.859422Z" fill="white"/>
<path fill-rule="evenodd" clip-rule="evenodd" d="M13.3652 31.1661C8.38978 30.8362 4.12442 28.519 1.47818 25.1589C4.07283 27.2544 7.40379 27.4911 9.56135 27.0764C12.9941 26.4228 16.7938 24.8001 17.6382 16.4345C17.8596 14.2187 18.2952 10.7627 21.2406 10.1981C23.7451 9.7175 26.3169 11.0896 27.2775 13.743C30.144 21.6626 24.5363 31.9169 13.3652 31.1661Z" fill="white"/>
</g>
</svg>
