<svg width="150" height="27" viewBox="0 0 150 27" fill="none" xmlns="http://www.w3.org/2000/svg">
<mask id="mask0_2312_57043" style="mask-type:alpha" maskUnits="userSpaceOnUse" x="0" y="0" width="150" height="27">
<rect width="150" height="27" fill="#D9D9D9"/>
</mask>
<g mask="url(#mask0_2312_57043)">
<path d="M134.84 27C133.006 27 131.37 26.6292 129.932 25.8874C128.519 25.1209 127.403 24.033 126.585 22.6237C125.767 21.2143 125.358 19.5454 125.358 17.6168V17.0605C125.358 15.1319 125.767 13.4753 126.585 12.0907C127.403 10.6814 128.519 9.59345 129.932 8.82697C131.37 8.06049 133.006 7.67725 134.84 7.67725C136.675 7.67725 138.311 8.06049 139.749 8.82697C141.187 9.59345 142.315 10.6814 143.133 12.0907C143.951 13.4753 144.361 15.1319 144.361 17.0605V17.6168C144.361 19.5454 143.951 21.2143 143.133 22.6237C142.315 24.033 141.187 25.1209 139.749 25.8874C138.311 26.6292 136.675 27 134.84 27ZM134.84 23.588C136.526 23.588 137.89 23.0564 138.931 21.9932C139.997 20.9053 140.53 19.4094 140.53 17.5055V17.1718C140.53 15.2679 140.01 13.7844 138.968 12.7212C137.927 11.6333 136.551 11.0893 134.84 11.0893C133.179 11.0893 131.816 11.6333 130.75 12.7212C129.709 13.7844 129.188 15.2679 129.188 17.1718V17.5055C129.188 19.4094 129.709 20.9053 130.75 21.9932C131.816 23.0564 133.179 23.588 134.84 23.588Z" fill="#0F3D3A"/>
<path d="M112.522 26.4806V8.19625H116.278V10.3473H116.873C117.171 9.58086 117.642 9.02454 118.287 8.67839C118.956 8.30751 119.774 8.12207 120.741 8.12207H122.935V11.5712H120.592C119.353 11.5712 118.336 11.9174 117.543 12.6097C116.749 13.2773 116.353 14.3158 116.353 15.7251V26.4806H112.522Z" fill="#0F3D3A"/>
<path d="M102.37 26.4806C101.254 26.4806 100.362 26.1468 99.6924 25.4792C99.0478 24.8116 98.7255 23.9215 98.7255 22.8088V11.4229H93.668V8.19621H98.7255V2.15088H102.556V8.19621H108.023V11.4229H102.556V22.1413C102.556 22.883 102.903 23.2539 103.597 23.2539H107.427V26.4806H102.37Z" fill="#0F3D3A"/>
<path d="M82.9298 26.4806V11.4229H77.7979V8.19624H82.9298V4.19075C82.9298 3.07811 83.2645 2.188 83.9339 1.52042C84.6032 0.852834 85.4957 0.519043 86.6114 0.519043H91.3342V3.74569H87.8386C87.1196 3.74569 86.7601 4.11657 86.7601 4.85833V8.19624H92.0408V11.4229H86.7601V26.4806H82.9298Z" fill="#0F3D3A"/>
<path d="M66.0211 27C64.1865 27 62.5503 26.6292 61.1123 25.8874C59.6992 25.1209 58.5835 24.033 57.7654 22.6237C56.9473 21.2143 56.5382 19.5454 56.5382 17.6168V17.0605C56.5382 15.1319 56.9473 13.4753 57.7654 12.0907C58.5835 10.6814 59.6992 9.59345 61.1123 8.82697C62.5503 8.06049 64.1865 7.67725 66.0211 7.67725C67.8557 7.67725 69.492 8.06049 70.9299 8.82697C72.3679 9.59345 73.4959 10.6814 74.314 12.0907C75.1322 13.4753 75.5412 15.1319 75.5412 17.0605V17.6168C75.5412 19.5454 75.1322 21.2143 74.314 22.6237C73.4959 24.033 72.3679 25.1209 70.9299 25.8874C69.492 26.6292 67.8557 27 66.0211 27ZM66.0211 23.588C67.707 23.588 69.0705 23.0564 70.1118 21.9932C71.1778 20.9053 71.7109 19.4094 71.7109 17.5055V17.1718C71.7109 15.2679 71.1902 13.7844 70.149 12.7212C69.1077 11.6333 67.7318 11.0893 66.0211 11.0893C64.3601 11.0893 62.9965 11.6333 61.9305 12.7212C60.8892 13.7844 60.3686 15.2679 60.3686 17.1718V17.5055C60.3686 19.4094 60.8892 20.9053 61.9305 21.9932C62.9965 23.0564 64.3601 23.588 66.0211 23.588Z" fill="#0F3D3A"/>
<path d="M43.5086 27C41.5501 27 39.8146 26.6538 38.3023 25.9615C36.79 25.2692 35.6 24.2555 34.7323 22.9203C33.8894 21.5604 33.4679 19.9162 33.4679 17.9876V17.0604H37.447V17.9876C37.447 19.8173 37.9924 21.1896 39.0833 22.1044C40.1989 23.0192 41.674 23.4766 43.5086 23.4766C45.368 23.4766 46.7688 23.0934 47.7109 22.3269C48.653 21.5357 49.124 20.522 49.124 19.2857C49.124 18.4698 48.9009 17.8022 48.4546 17.283C48.0084 16.7637 47.3762 16.3558 46.558 16.0591C45.7399 15.7376 44.7606 15.4409 43.6202 15.169L42.2442 14.8352C40.5832 14.4396 39.1329 13.9574 37.8933 13.3887C36.6785 12.7953 35.7364 12.0165 35.067 11.0522C34.3976 10.0879 34.0629 8.85165 34.0629 7.34341C34.0629 5.81044 34.4348 4.5 35.1785 3.41209C35.9471 2.32418 37.0007 1.48352 38.3395 0.890109C39.6783 0.296703 41.2526 0 43.0624 0C44.8722 0 46.4837 0.309066 47.8968 0.927199C49.3347 1.54533 50.4628 2.46017 51.2809 3.6717C52.099 4.88324 52.5081 6.40385 52.5081 8.23352V9.56868H48.529V8.23352C48.529 7.12088 48.2935 6.21841 47.8224 5.5261C47.3762 4.83379 46.744 4.32692 45.9258 4.0055C45.1077 3.68407 44.1532 3.52335 43.0624 3.52335C41.4757 3.52335 40.2361 3.85714 39.3436 4.52473C38.4759 5.16758 38.042 6.07005 38.042 7.23214C38.042 8.02335 38.2279 8.67857 38.5998 9.1978C38.9965 9.69231 39.5667 10.1003 40.3105 10.4217C41.0542 10.7431 41.9839 11.0275 43.0996 11.2747L44.4755 11.6085C46.1614 11.9794 47.6489 12.4615 48.9381 13.0549C50.2272 13.6236 51.2437 14.4025 51.9875 15.3915C52.7312 16.3805 53.1031 17.6538 53.1031 19.2115C53.1031 20.7692 52.7064 22.1291 51.9131 23.2912C51.1445 24.4533 50.0413 25.3681 48.6034 26.0357C47.1654 26.6786 45.4672 27 43.5086 27Z" fill="#0F3D3A"/>
<path fill-rule="evenodd" clip-rule="evenodd" d="M14.7232 0.724649C19.0609 1.01155 22.7795 3.02671 25.0865 5.94875C22.8245 4.12648 19.9205 3.92066 18.0395 4.28128C15.0467 4.84965 11.7341 6.26082 10.9979 13.5359C10.8048 15.4628 10.4252 18.4683 7.8573 18.9593C5.67377 19.3772 3.43161 18.184 2.59421 15.8765C0.0951349 8.98935 4.98404 0.0717684 14.7232 0.724649Z" fill="#0F3D3A"/>
<path fill-rule="evenodd" clip-rule="evenodd" d="M11.7851 26.2972C7.57654 26.0189 3.96862 24.0637 1.73026 21.2287C3.92497 22.9967 6.74252 23.1964 8.56752 22.8465C11.4712 22.295 14.6852 20.9259 15.3994 13.8674C15.5868 11.9978 15.9551 9.08178 18.4466 8.60544C20.5651 8.19993 22.7405 9.35762 23.553 11.5964C25.9776 18.2786 21.2343 26.9307 11.7851 26.2972Z" fill="#C8F8A9"/>
</g>
</svg>
