<svg width="150" height="27" viewBox="0 0 150 27" fill="none" xmlns="http://www.w3.org/2000/svg">
<mask id="mask0_2594_71302" style="mask-type:alpha" maskUnits="userSpaceOnUse" x="0" y="0" width="150" height="27">
<rect width="150" height="27" fill="#D9D9D9"/>
</mask>
<g mask="url(#mask0_2594_71302)">
<path d="M134.84 27C133.006 27 131.369 26.6292 129.932 25.8874C128.518 25.1209 127.403 24.033 126.585 22.6237C125.766 21.2143 125.357 19.5454 125.357 17.6168V17.0605C125.357 15.1319 125.766 13.4753 126.585 12.0907C127.403 10.6814 128.518 9.59345 129.932 8.82697C131.369 8.06049 133.006 7.67725 134.84 7.67725C136.675 7.67725 138.311 8.06049 139.749 8.82697C141.187 9.59345 142.315 10.6814 143.133 12.0907C143.951 13.4753 144.36 15.1319 144.36 17.0605V17.6168C144.36 19.5454 143.951 21.2143 143.133 22.6237C142.315 24.033 141.187 25.1209 139.749 25.8874C138.311 26.6292 136.675 27 134.84 27ZM134.84 23.588C136.526 23.588 137.89 23.0564 138.931 21.9932C139.997 20.9053 140.53 19.4094 140.53 17.5055V17.1718C140.53 15.2679 140.009 13.7844 138.968 12.7212C137.927 11.6333 136.551 11.0893 134.84 11.0893C133.179 11.0893 131.816 11.6333 130.75 12.7212C129.708 13.7844 129.188 15.2679 129.188 17.1718V17.5055C129.188 19.4094 129.708 20.9053 130.75 21.9932C131.816 23.0564 133.179 23.588 134.84 23.588Z" fill="white"/>
<path d="M112.522 26.4808V8.19649H116.278V10.3476H116.873C117.171 9.58111 117.642 9.02479 118.287 8.67863C118.956 8.30775 119.774 8.12231 120.741 8.12231H122.935V11.5715H120.592C119.353 11.5715 118.336 11.9176 117.543 12.61C116.749 13.2775 116.353 14.316 116.353 15.7253V26.4808H112.522Z" fill="white"/>
<path d="M102.37 26.4808C101.254 26.4808 100.362 26.147 99.6924 25.4794C99.0478 24.8118 98.7255 23.9217 98.7255 22.8091V11.4231H93.668V8.19645H98.7255V2.15112H102.556V8.19645H108.023V11.4231H102.556V22.1415C102.556 22.8833 102.903 23.2541 103.597 23.2541H107.427V26.4808H102.37Z" fill="white"/>
<path d="M82.9298 26.4808V11.4231H77.7979V8.19649H82.9298V4.19099C82.9298 3.07835 83.2645 2.18824 83.9339 1.52066C84.6032 0.853078 85.4957 0.519287 86.6114 0.519287H91.3342V3.74594H87.8386C87.1196 3.74594 86.7601 4.11682 86.7601 4.85857V8.19649H92.0408V11.4231H86.7601V26.4808H82.9298Z" fill="white"/>
<path d="M66.021 27C64.1864 27 62.5501 26.6292 61.1122 25.8874C59.6991 25.1209 58.5834 24.033 57.7653 22.6237C56.9472 21.2143 56.5381 19.5454 56.5381 17.6168V17.0605C56.5381 15.1319 56.9472 13.4753 57.7653 12.0907C58.5834 10.6814 59.6991 9.59345 61.1122 8.82697C62.5501 8.06049 64.1864 7.67725 66.021 7.67725C67.8556 7.67725 69.4919 8.06049 70.9298 8.82697C72.3677 9.59345 73.4958 10.6814 74.3139 12.0907C75.132 13.4753 75.5411 15.1319 75.5411 17.0605V17.6168C75.5411 19.5454 75.132 21.2143 74.3139 22.6237C73.4958 24.033 72.3677 25.1209 70.9298 25.8874C69.4919 26.6292 67.8556 27 66.021 27ZM66.021 23.588C67.7069 23.588 69.0704 23.0564 70.1117 21.9932C71.1777 20.9053 71.7108 19.4094 71.7108 17.5055V17.1718C71.7108 15.2679 71.1901 13.7844 70.1489 12.7212C69.1076 11.6333 67.7316 11.0893 66.021 11.0893C64.3599 11.0893 62.9964 11.6333 61.9303 12.7212C60.8891 13.7844 60.3684 15.2679 60.3684 17.1718V17.5055C60.3684 19.4094 60.8891 20.9053 61.9303 21.9932C62.9964 23.0564 64.3599 23.588 66.021 23.588Z" fill="white"/>
<path d="M43.5085 27C41.5499 27 39.8145 26.6538 38.3022 25.9615C36.7899 25.2692 35.5999 24.2555 34.7322 22.9203C33.8892 21.5604 33.4678 19.9162 33.4678 17.9876V17.0604H37.4469V17.9876C37.4469 19.8173 37.9923 21.1896 39.0831 22.1044C40.1988 23.0192 41.6739 23.4766 43.5085 23.4766C45.3679 23.4766 46.7686 23.0934 47.7107 22.3269C48.6528 21.5357 49.1239 20.522 49.1239 19.2857C49.1239 18.4698 48.9008 17.8022 48.4545 17.283C48.0082 16.7637 47.3761 16.3558 46.5579 16.0591C45.7398 15.7376 44.7605 15.4409 43.6201 15.169L42.2441 14.8352C40.5831 14.4396 39.1327 13.9574 37.8931 13.3887C36.6783 12.7953 35.7362 12.0165 35.0669 11.0522C34.3975 10.0879 34.0628 8.85165 34.0628 7.34341C34.0628 5.81044 34.4347 4.5 35.1784 3.41209C35.947 2.32418 37.0006 1.48352 38.3394 0.890109C39.6782 0.296703 41.2524 0 43.0623 0C44.8721 0 46.4835 0.309066 47.8967 0.927199C49.3346 1.54533 50.4626 2.46017 51.2808 3.6717C52.0989 4.88324 52.508 6.40385 52.508 8.23352V9.56868H48.5289V8.23352C48.5289 7.12088 48.2934 6.21841 47.8223 5.5261C47.376 4.83379 46.7439 4.32692 45.9257 4.0055C45.1076 3.68407 44.1531 3.52335 43.0623 3.52335C41.4756 3.52335 40.236 3.85714 39.3435 4.52473C38.4757 5.16758 38.0419 6.07005 38.0419 7.23214C38.0419 8.02335 38.2278 8.67857 38.5997 9.1978C38.9964 9.69231 39.5666 10.1003 40.3103 10.4217C41.0541 10.7431 41.9838 11.0275 43.0994 11.2747L44.4754 11.6085C46.1612 11.9794 47.6488 12.4615 48.9379 13.0549C50.2271 13.6236 51.2436 14.4025 51.9874 15.3915C52.7311 16.3805 53.103 17.6538 53.103 19.2115C53.103 20.7692 52.7063 22.1291 51.913 23.2912C51.1444 24.4533 50.0412 25.3681 48.6033 26.0357C47.1653 26.6786 45.4671 27 43.5085 27Z" fill="white"/>
<path fill-rule="evenodd" clip-rule="evenodd" d="M14.7233 0.724405C19.061 1.01131 22.7796 3.02646 25.0866 5.94851C22.8246 4.12623 19.9206 3.92042 18.0396 4.28104C15.0468 4.84941 11.7342 6.26058 10.998 13.5357C10.805 15.4626 10.4253 18.4681 7.85743 18.9591C5.67389 19.377 3.43174 18.1838 2.59433 15.8763C0.0952569 8.9891 4.98417 0.0715243 14.7233 0.724405Z" fill="#0F3D3A"/>
<path fill-rule="evenodd" clip-rule="evenodd" d="M11.785 26.2971C7.57641 26.0187 3.9685 24.0636 1.73013 21.2285C3.92485 22.9966 6.7424 23.1962 8.5674 22.8464C11.4711 22.2949 14.6851 20.9258 15.3993 13.8672C15.5866 11.9977 15.955 9.08166 18.4464 8.60532C20.565 8.19981 22.7404 9.3575 23.5528 11.5963C25.9775 18.2785 21.2342 26.9306 11.785 26.2971Z" fill="#C8F8A9"/>
</g>
</svg>
