<svg width="54" height="54" viewBox="0 0 54 54" fill="none" xmlns="http://www.w3.org/2000/svg">
<g clip-path="url(#clip0_3996_253998)">
<path d="M45.9 0H8.1C3.62649 0 0 3.62649 0 8.1V45.9C0 50.3735 3.62649 54 8.1 54H45.9C50.3735 54 54 50.3735 54 45.9V8.1C54 3.62649 50.3735 0 45.9 0Z" fill="#F9F9F9"/>
<path d="M16.6641 41.2383V26.2617L8.01562 19.6172V38.0742C8.01562 40.1836 9.07031 41.2383 11.1797 41.2383" fill="#4285F4"/>
<path d="M16.2422 26.1562L27 34.2773L37.7578 26.1562V15.8203L27 23.9414L16.2422 15.8203" fill="#EA4335"/>
<path d="M37.3359 41.2383V26.2617L45.9844 19.6172V38.0742C45.9844 40.1836 44.9297 41.2383 42.8203 41.2383" fill="#34A853"/>
<path d="M8.01562 19.828L16.6641 26.4725V16.1366L13.5 13.7108C10.6523 11.4959 8.01562 13.7108 8.01562 16.453" fill="#C5221F"/>
<path d="M45.9844 19.828L37.3359 26.4725V16.1366L40.5 13.7108C43.3477 11.4959 45.9844 13.7108 45.9844 16.453" fill="#FBBC04"/>
</g>
<defs>
<clipPath id="clip0_3996_253998">
<rect width="54" height="54" fill="white"/>
</clipPath>
</defs>
</svg>
