<svg width="37" height="37" viewBox="0 0 37 37" fill="none" xmlns="http://www.w3.org/2000/svg">
<g clip-path="url(#clip0_3939_232354)">
<path d="M8.19998 22.3597L6.91206 27.1677L2.20475 27.2673C0.797957 24.658 0 21.6726 0 18.5002C0 15.4324 0.74607 12.5395 2.06853 9.99219H2.06954L6.26037 10.7605L8.09621 14.9262C7.71197 16.0464 7.50254 17.2489 7.50254 18.5002C7.50269 19.8582 7.74868 21.1593 8.19998 22.3597Z" fill="#FBBB00"/>
<path d="M36.6763 15.0439C36.8888 16.1631 36.9995 17.3188 36.9995 18.5C36.9995 19.8245 36.8603 21.1164 36.595 22.3626C35.6944 26.6034 33.3412 30.3064 30.0814 32.9269L30.0804 32.9259L24.8018 32.6566L24.0547 27.9929C26.2178 26.7244 27.9082 24.7392 28.7987 22.3626H18.9062V15.0439H36.6763Z" fill="#518EF8"/>
<path d="M30.0792 32.9257L30.0802 32.9267C26.9098 35.475 22.8824 36.9997 18.4984 36.9997C11.4531 36.9997 5.32782 33.0619 2.20312 27.2669L8.19835 22.3594C9.76066 26.529 13.7829 29.4971 18.4984 29.4971C20.5252 29.4971 22.4241 28.9492 24.0534 27.9927L30.0792 32.9257Z" fill="#28B446"/>
<path d="M30.3103 4.25905L24.3171 9.16559C22.6308 8.11153 20.6374 7.50262 18.5018 7.50262C13.6796 7.50262 9.58211 10.6069 8.09806 14.926L2.07132 9.99202H2.07031C5.14926 4.05576 11.3518 0 18.5018 0C22.9906 0 27.1063 1.59895 30.3103 4.25905Z" fill="#F14336"/>
</g>
<defs>
<clipPath id="clip0_3939_232354">
<rect width="37" height="37" fill="white"/>
</clipPath>
</defs>
</svg>
