<svg width="54" height="54" viewBox="0 0 54 54" fill="none" xmlns="http://www.w3.org/2000/svg">
<g clip-path="url(#clip0_3982_237733)">
<g clip-path="url(#clip1_3982_237733)">
<path d="M11.9675 32.6329L10.0879 39.65L3.21775 39.7953C1.16459 35.9872 0 31.6301 0 27.0001C0 22.5228 1.08886 18.3007 3.01894 14.583H3.02041L9.13676 15.7044L11.8161 21.784C11.2553 23.4189 10.9497 25.1739 10.9497 27.0001C10.9499 28.982 11.3089 30.881 11.9675 32.6329Z" fill="#FBBB00"/>
<path d="M53.5284 21.9561C53.8385 23.5893 54.0002 25.2761 54.0002 27C54.0002 28.933 53.7969 30.8186 53.4098 32.6374C52.0954 38.8266 48.661 44.2311 43.9034 48.0556L43.902 48.0541L36.1981 47.661L35.1078 40.8546C38.2647 39.0032 40.7318 36.1058 42.0314 32.6374H27.5938V21.9561H53.5284Z" fill="#518EF8"/>
<path d="M43.8988 48.0539L43.9003 48.0554C39.2732 51.7745 33.3955 53.9998 26.9971 53.9998C16.7148 53.9998 7.77521 48.2527 3.21484 39.7952L11.9646 32.6328C14.2448 38.7181 20.1151 43.0501 26.9971 43.0501C29.9552 43.0501 32.7265 42.2504 35.1045 40.8544L43.8988 48.0539Z" fill="#28B446"/>
<path d="M44.2366 6.21591L35.4897 13.3768C33.0286 11.8384 30.1194 10.9498 27.0025 10.9498C19.9647 10.9498 13.9846 15.4804 11.8187 21.7839L3.02296 14.583H3.02148C7.51509 5.91922 16.5675 0 27.0025 0C33.5537 0 39.5605 2.3336 44.2366 6.21591Z" fill="#F14336"/>
</g>
</g>
<defs>
<clipPath id="clip0_3982_237733">
<rect width="54" height="54" fill="white"/>
</clipPath>
<clipPath id="clip1_3982_237733">
<rect width="54" height="54" fill="white"/>
</clipPath>
</defs>
</svg>
