<svg width="54" height="54" viewBox="0 0 54 54" fill="none" xmlns="http://www.w3.org/2000/svg">
<path d="M22.5 38.25H20.25V21.375L31.9909 38.9864C33.0457 40.5686 34.9816 41.3172 36.8266 40.8559L37.3979 40.7131C37.8988 40.5877 38.25 40.1378 38.25 39.6216V15.75C38.25 15.75 40.5 15.75 40.5 13.5H33.75C31.5 13.5 31.5 15.75 31.5 15.75H33.75V29.25L22.8366 13.9711C22.6253 13.6755 22.2846 13.5 21.9212 13.5H15.75C13.5 13.5 13.5 15.75 13.5 15.75H15.75V38.25C15.75 38.25 13.5 38.25 13.5 40.5H20.25C22.5 40.5 22.5 38.25 22.5 38.25Z" fill="white"/>
<path fill-rule="evenodd" clip-rule="evenodd" d="M2.25 9C2.25 5.27209 5.27209 2.25 9 2.25H45C48.728 2.25 51.75 5.27209 51.75 9V45C51.75 48.728 48.728 51.75 45 51.75H9C5.27209 51.75 2.25 48.728 2.25 45V9ZM9 6.75H45C46.2427 6.75 47.25 7.75737 47.25 9V45C47.25 46.2427 46.2427 47.25 45 47.25H9C7.75737 47.25 6.75 46.2427 6.75 45V9C6.75 7.75737 7.75737 6.75 9 6.75Z" fill="white"/>
</svg>
