<svg width="54" height="54" viewBox="0 0 54 54" fill="none" xmlns="http://www.w3.org/2000/svg">
<path fill-rule="evenodd" clip-rule="evenodd" d="M20.3318 2C17.5679 2.00204 15.3311 4.24053 15.3332 6.9989C15.3311 9.75726 17.57 11.9958 20.3338 11.9978H25.3345V7.00093C25.3366 4.24257 23.0977 2.00408 20.3318 2C20.3338 2 20.3338 2 20.3318 2ZM20.3318 15.3331H7.0007C4.23684 15.3351 1.99796 17.5736 2.00001 20.332C1.99592 23.0904 4.23479 25.3289 6.99866 25.3329H20.3318C23.0957 25.3309 25.3345 23.0924 25.3325 20.334C25.3345 17.5736 23.0957 15.3351 20.3318 15.3331Z" fill="#36C5F0"/>
<path fill-rule="evenodd" clip-rule="evenodd" d="M52.0005 20.332C52.0025 17.5736 49.7636 15.3351 46.9998 15.3331C44.2359 15.3351 41.997 17.5736 41.9991 20.332V25.3329H46.9998C49.7636 25.3309 52.0025 23.0924 52.0005 20.332ZM38.6673 20.332V6.9989C38.6694 4.24257 36.4325 2.00408 33.6687 2C30.9048 2.00204 28.6659 4.24053 28.668 6.9989V20.332C28.6639 23.0904 30.9028 25.3289 33.6666 25.3329C36.4305 25.3309 38.6694 23.0924 38.6673 20.332Z" fill="#2EB67D"/>
<path fill-rule="evenodd" clip-rule="evenodd" d="M33.6667 52C36.4306 51.998 38.6695 49.7595 38.6674 47.0011C38.6695 44.2428 36.4306 42.0043 33.6667 42.0022H28.666V47.0011C28.664 49.7574 30.9028 51.9959 33.6667 52ZM33.6667 38.6649H46.9999C49.7637 38.6628 52.0026 36.4243 52.0006 33.666C52.0046 30.9076 49.7658 28.6691 47.0019 28.665H33.6688C30.9049 28.6671 28.666 30.9056 28.6681 33.6639C28.666 36.4243 30.9028 38.6628 33.6667 38.6649Z" fill="#ECB22E"/>
<path fill-rule="evenodd" clip-rule="evenodd" d="M2 33.6659C1.99796 36.4242 4.23683 38.6627 7.0007 38.6648C9.76456 38.6627 12.0034 36.4242 12.0014 33.6659V28.667H7.0007C4.23683 28.669 1.99796 30.9075 2 33.6659ZM15.3331 33.6659V46.999C15.3291 49.7574 17.5679 51.9959 20.3318 51.9999C23.0957 51.9979 25.3345 49.7594 25.3325 47.001V33.67C25.3366 30.9116 23.0977 28.6731 20.3338 28.669C17.5679 28.669 15.3311 30.9075 15.3331 33.6659Z" fill="#E01E5A"/>
</svg>
