<svg width="54" height="54" viewBox="0 0 54 54" fill="none" xmlns="http://www.w3.org/2000/svg">
<g clip-path="url(#clip0_3982_237685)">
<path d="M27 54C41.9117 54 54 41.9117 54 27C54 12.0883 41.9117 0 27 0C12.0883 0 0 12.0883 0 27C0 41.9117 12.0883 54 27 54Z" fill="#635BFF"/>
<path d="M41.2214 27.1976C41.2214 25.1752 40.2416 23.579 38.3696 23.579C36.4975 23.579 35.3516 25.1747 35.3516 27.1818C35.3516 29.5596 36.6947 30.7609 38.6211 30.7609C39.5613 30.7609 40.2722 30.5499 40.8096 30.2472V28.6652C40.2722 28.9336 39.6563 29.0997 38.8742 29.0997C38.108 29.0997 37.4282 28.8313 37.3418 27.899H41.2051C41.2056 27.7977 41.2214 27.3869 41.2214 27.1976ZM37.3191 26.4472C37.3191 25.5544 37.8644 25.1816 38.3622 25.1816C38.8442 25.1816 39.3578 25.5507 39.3578 26.4472H37.3191ZM32.3019 23.579C31.7256 23.5768 31.1708 23.7977 30.7537 24.1954L30.6508 23.7055H28.9106V32.9172L30.8855 32.4985L30.8934 30.2625C31.1776 30.4682 31.5963 30.7603 32.2919 30.7603C33.7063 30.7603 34.994 29.6229 34.994 27.1185C34.9877 24.8272 33.6841 23.579 32.3019 23.579ZM31.8273 29.0222C31.3612 29.0222 31.0848 28.8561 30.895 28.6531L30.8871 25.7221C31.0927 25.4932 31.377 25.335 31.8273 25.335C32.5461 25.335 33.0439 26.1408 33.0439 27.176C33.0444 28.2322 32.5545 29.0222 31.8279 29.0222H31.8273ZM26.1948 23.1128L28.1776 22.6862V21.0825L26.1948 21.5012V23.1128ZM26.1948 23.7134H28.1776V30.6264H26.1948V23.7134ZM24.0696 24.2977L23.942 23.7134H22.2365V30.6259H24.2114V25.9409C24.6776 25.3324 25.4676 25.4431 25.7122 25.5301V23.7134C25.4602 23.6185 24.5357 23.4445 24.0696 24.2977ZM20.1192 21.999L18.1939 22.412L18.186 28.7401C18.186 29.9092 19.063 30.7704 20.2321 30.7704C20.8797 30.7704 21.3537 30.6517 21.6148 30.5098V28.9041C21.3622 29.0069 20.114 29.3703 20.114 28.2011V25.3962H21.6148V23.7134H20.1113L20.1192 21.999ZM14.7788 25.72C14.7788 25.412 15.0314 25.2934 15.4501 25.2934C16.1336 25.3077 16.8043 25.4808 17.4092 25.7991V23.9412C16.7861 23.6958 16.1214 23.5728 15.4517 23.579C13.8481 23.579 12.7812 24.4164 12.7812 25.8149C12.7812 27.9955 15.7834 27.6479 15.7834 28.5877C15.7834 28.951 15.467 29.0697 15.0251 29.0697C14.3696 29.0697 13.5317 28.8012 12.8683 28.4369V30.3174C13.5493 30.612 14.2831 30.7653 15.0251 30.7677C16.6683 30.7677 17.7979 29.954 17.7979 28.5397C17.7889 26.1862 14.7788 26.6049 14.7788 25.72Z" fill="white"/>
</g>
<defs>
<clipPath id="clip0_3982_237685">
<rect width="54" height="54" fill="white"/>
</clipPath>
</defs>
</svg>
