<svg width="54" height="54" viewBox="0 0 54 54" fill="none" xmlns="http://www.w3.org/2000/svg">
<g clip-path="url(#clip0_3982_237678)">
<path d="M27.0169 0C28.5422 0.00280197 30.0422 0.131693 31.5005 0.375464V16.0945L42.6446 4.97911C43.8754 5.85331 45.0269 6.8256 46.0915 7.88755C47.1566 8.94951 48.1343 10.1011 49.0107 11.3284L37.866 22.4438H53.6262C53.8708 23.898 54 25.3887 54 26.913V26.9494C54 28.4736 53.8708 29.9671 53.6262 31.4213H37.8633L49.0107 42.534C48.1343 43.7612 47.1566 44.9128 46.0947 45.9748H46.0915C45.0269 47.0368 43.8754 48.0118 42.6478 48.8832L31.5005 37.7678V53.4869C30.0449 53.7307 28.5449 53.8594 27.0196 53.8626H26.9804C25.4546 53.8594 23.9604 53.7307 22.5022 53.4869V37.7678L11.3581 48.8832C8.89694 47.1376 6.74524 44.9885 4.99202 42.534L16.1367 31.4213H0.376493C0.129252 29.9643 0 28.4652 0 26.941V26.8627C0.00256194 26.4672 0.0284639 25.9839 0.0656673 25.484L0.0771552 25.3336C0.187312 23.9264 0.376493 22.4438 0.376493 22.4438H16.1367L4.99202 11.3284C5.86568 10.1011 6.8407 8.9523 7.90529 7.89319L7.91065 7.88755C8.97309 6.8256 10.1272 5.85331 11.3581 4.97911L22.5022 16.0945V0.375464C23.9604 0.131693 25.4578 0.00280197 26.9858 0H27.0169ZM27.0142 20.1994H26.9885C24.9826 20.1994 23.0616 20.5665 21.2858 21.2333C20.6203 23.0014 20.2518 24.9179 20.2491 26.9185V26.9438C20.2518 28.9444 20.6203 30.861 21.2885 32.629C23.0616 33.2959 24.9826 33.6629 26.9885 33.6629H27.0142C29.02 33.6629 30.9411 33.2959 32.7142 32.629C33.3824 30.8582 33.7509 28.9444 33.7509 26.9438V26.9185C33.7509 24.9179 33.3824 23.0014 32.7142 21.2333C30.9411 20.5665 29.02 20.1994 27.0142 20.1994Z" fill="#FF4A00"/>
</g>
<defs>
<clipPath id="clip0_3982_237678">
<rect width="54" height="54" fill="white"/>
</clipPath>
</defs>
</svg>
